<?xml version="1.0" ?><svg id="Layer_1" style="enable-background:new 0 0 66 66;" version="1.1" viewBox="0 0 66 66" xml:space="preserve" xmlns="http://www.w3.org/2000/svg" xmlns:xlink="http://www.w3.org/1999/xlink"><style type="text/css">
	.st0{fill:#D4EFFC;}
	.st1{fill:#A0DFFF;}
	.st2{fill:#364DEC;}
	.st3{fill:#FABF63;}
	.st4{fill:#F5B6A3;}
	.st5{fill:#26CD9D;}
	.st6{fill:#FFFFFF;}
</style><g><g><rect class="st0" height="5.06" width="2.78" x="2.03" y="20.29"/></g><g><polygon class="st0" points="31.77,25.35 31.77,27.51 6.54,27.51 6.54,58.95 4.82,58.95 4.82,25.35   "/></g><g><rect class="st0" height="5.06" width="1.85" x="29.39" y="7.05"/></g><g><rect class="st0" height="5.06" width="1.85" x="58.61" y="7.05"/></g><g><path class="st1" d="M60.24,10.31H44.92c-0.4,0-0.73-0.33-0.73-0.73s0.33-0.73,0.73-0.73h15.32c0.4,0,0.73,0.33,0.73,0.73    S60.64,10.31,60.24,10.31z"/></g><g><path class="st1" d="M17.35,23.55H2.03c-0.4,0-0.73-0.33-0.73-0.73c0-0.4,0.33-0.73,0.73-0.73h15.32c0.4,0,0.73,0.33,0.73,0.73    C18.08,23.22,17.75,23.55,17.35,23.55z"/></g><g><rect class="st0" height="46.84" width="2.05" x="31.77" y="12.11"/></g><g><rect class="st0" height="46.84" width="2.05" x="56.02" y="12.11"/></g><path class="st2" d="M31.52,24.98v-5.43H2.03c-0.4,0-0.73,0.33-0.73,0.73v5.06c0,0.4,0.33,0.73,0.73,0.73h2.05v32.55h27.81V24.98   H31.52z M2.76,21.02h28.28v3.59H2.76V21.02z M31.04,58.22H5.55V26.08h25.49V58.22z"/><g><g><g><rect class="st0" height="7.46" width="5.27" x="8.04" y="28.39"/></g><g><rect class="st0" height="7.46" width="5.27" x="15.66" y="28.39"/></g><g><rect class="st0" height="7.46" width="5.27" x="23.28" y="28.39"/></g></g><g><g><rect class="st0" height="7.46" width="5.27" x="8.04" y="38.42"/></g><g><rect class="st0" height="7.46" width="5.27" x="15.66" y="38.42"/></g><g><rect class="st0" height="7.46" width="5.27" x="23.28" y="38.42"/></g></g><g><g><rect class="st0" height="7.46" width="5.27" x="8.04" y="48.45"/></g><g><rect class="st0" height="7.46" width="5.27" x="15.66" y="48.45"/></g><g><rect class="st0" height="7.46" width="5.27" x="23.28" y="48.45"/></g></g></g><g><path class="st2" d="M64.27,59.68H1.73c-0.4,0-0.73-0.33-0.73-0.73c0-0.4,0.33-0.73,0.73-0.73h62.53c0.4,0,0.73,0.33,0.73,0.73    C65,59.36,64.67,59.68,64.27,59.68z"/></g><path class="st2" d="M60.45,6.32H29.39c-0.4,0-0.73,0.33-0.73,0.73v5.06c0,0.4,0.33,0.73,0.73,0.73h1.65v46.11   c0,0.4,0.33,0.73,0.73,0.73h26.29c0.4,0,0.73-0.33,0.73-0.73V12.84h1.65c0.4,0,0.73-0.33,0.73-0.73V7.05   C61.18,6.64,60.85,6.32,60.45,6.32z M57.33,58.22H32.51V12.84h24.83V58.22z M59.72,11.38H30.13V7.78h29.59V11.38z"/><g><path class="st2" d="M55.53,41.74l-9.81-10.95c-0.14-0.16-0.34-0.24-0.55-0.24s-0.41,0.09-0.55,0.24l-9.8,10.95    c-0.19,0.22-0.24,0.52-0.12,0.79c0.12,0.26,0.38,0.43,0.67,0.43h1.54v15.79h16.52V42.96h1.54c0.29,0,0.55-0.17,0.67-0.43    C55.78,42.27,55.73,41.96,55.53,41.74z M51.98,58.22H38.39V42.97h13.59V58.22z M45.18,32.38l8.17,9.12H37.02L45.18,32.38z"/><path class="st2" d="M49.41,51.34c0.4,0,0.73-0.33,0.73-0.73v-1.82c0-0.4-0.33-0.73-0.73-0.73c-0.4,0-0.73,0.33-0.73,0.73v1.82    C48.67,51.01,49,51.34,49.41,51.34z"/></g><g><rect class="st3" height="3.14" width="20.43" x="34.71" y="21.03"/></g><g><rect class="st3" height="3.14" width="20.43" x="34.71" y="15.32"/></g><g><circle class="st3" cx="45.18" cy="37.88" r="2.1"/></g></g></svg>